<?xml version="1.0" encoding="UTF-8" standalone="no"?>
<svg
   xmlns:dc="http://purl.org/dc/elements/1.1/"
   xmlns:cc="http://creativecommons.org/ns#"
   xmlns:rdf="http://www.w3.org/1999/02/22-rdf-syntax-ns#"
   xmlns:svg="http://www.w3.org/2000/svg"
   xmlns="http://www.w3.org/2000/svg"
   version="1.1"
   id="svg4261"
   viewBox="0 0 48 48"
   height="48"
   width="48">
  <defs
     id="defs4263" />
  <metadata
     id="metadata4266">
    <rdf:RDF>
      <cc:Work
         rdf:about="">
        <dc:format>image/svg+xml</dc:format>
        <dc:type
           rdf:resource="http://purl.org/dc/dcmitype/StillImage" />
        <dc:title></dc:title>
      </cc:Work>
    </rdf:RDF>
  </metadata>
  <g
     transform="translate(-180.4669,-487.84555)"
     id="layer1">
    <rect
       y="487.84555"
       x="180.4669"
       height="48"
       width="48"
       id="rect4281"
       style="fill:none;fill-opacity:1;stroke:none;stroke-width:0.2;stroke-miterlimit:4;stroke-dasharray:none;stroke-opacity:1" />
    <g
       transform="matrix(0.73846154,0,0,0.73846154,59.733732,134.42644)"
       id="g4277">
      <rect
         style="fill:#ffffff;fill-opacity:1;stroke:none;stroke-width:0.2;stroke-miterlimit:4;stroke-dasharray:none;stroke-opacity:1"
         id="rect4249"
         width="39.56044"
         height="53.296703"
         x="176.21262"
         y="484.35315" />
      <path
         style="fill:#4d4d4d;fill-opacity:1"
         d="m 196.31088,479.34204 c -4.2789,0.22965 -6.13867,0.0791 -10.05247,0.54283 -15.43635,1.89701 -14.27148,-0.64579 -14.27148,31.125 0,29.74368 -0.67888,29.28801 10.44531,30.68555 0.42356,0.0746 0.85467,0.16088 1.26367,0.2207 4.37855,0.64041 8.29738,0.94078 12.29688,0.91797 3.9996,0.0228 7.91821,-0.27755 12.29687,-0.91797 0.31251,-0.0457 0.63675,-0.11273 0.96094,-0.18164 11.45074,-1.44813 10.74805,-0.70638 10.74805,-30.72461 0,-31.77079 1.16682,-29.22799 -14.26953,-31.125 -2.07316,-0.25478 -7.07406,-0.55844 -9.41824,-0.54283 z m -1.31028,7.25181 c 7.00277,-0.0236 13.77245,0.78808 15.18945,2.20508 1.89721,1.89721 -1.06234,8.61587 -6.17187,14.01172 -2.95799,3.12373 -5.01953,6.2214 -5.01953,7.54297 0,1.23798 2.25636,4.90886 5.03515,8.19531 4.9525,5.85726 7.74874,11.97991 6.70899,14.68946 -0.29098,0.75827 -2.86222,1.9162 -5.71289,2.57421 -7.73652,1.7858 -18.98902,1.19372 -22.86719,-1.20312 -3.03642,-1.87661 0.0399,-9.97085 6.35547,-16.72266 2.46496,-2.63524 4.48047,-5.66997 4.48047,-6.74414 0,-1.07418 -1.9125,-4.28425 -4.25,-7.13281 -7.92329,-9.6556 -9.88958,-15.52714 -5.5,-16.42188 3.26385,-0.66527 7.55029,-0.98 11.75195,-0.99414 z m 1.56641,37.22657 -4.28516,2.08203 c -4.55332,2.21217 -5.3898,3.67147 -2.5332,4.41797 2.70424,0.70666 10.90207,0.75967 12.66797,0.082 2.43365,-0.93388 1.91579,-1.99877 -2.13477,-4.38867 z"
         id="path4244" />
    </g>
  </g>
</svg>
